<svg width="197" height="54" viewBox="0 0 197 54" fill="none" xmlns="http://www.w3.org/2000/svg">
<g clip-path="url(#clip0_49_30)">
<path d="M41.8618 35.4902H49.1528C51.1397 35.4902 52.5533 36.0889 53.3937 37.2861C53.8863 37.9943 54.134 38.8122 54.134 39.7368C54.134 40.8189 53.8306 41.7041 53.2212 42.3983C52.9068 42.7637 52.4504 43.0981 51.8576 43.4017C52.7287 43.7361 53.3798 44.1127 53.8112 44.5343C54.5736 45.2818 54.9549 46.3133 54.9549 47.6258C54.9549 48.7303 54.6126 49.7308 53.9253 50.6245C52.9012 51.9623 51.2705 52.6312 49.0387 52.6312H41.8618V35.4902ZM48.2984 42.7384C49.2696 42.7384 50.0238 42.6035 50.5636 42.3309C51.4096 41.9037 51.8354 41.1336 51.8354 40.0207C51.8354 38.8993 51.3846 38.1461 50.4829 37.7555C49.9737 37.5391 49.2195 37.4294 48.2177 37.4294H44.1159V42.7384H48.2984ZM49.0721 50.6498C50.4829 50.6498 51.4875 50.2367 52.0886 49.4132C52.4671 48.8933 52.6563 48.2609 52.6563 47.5218C52.6563 46.2767 52.1053 45.428 51.0033 44.9783C50.4189 44.7366 49.6425 44.6158 48.6797 44.6158H44.1159V50.6498H49.0721Z" fill="white"/>
<path d="M57.6458 35.4902H64.9367C66.9236 35.4902 68.3373 36.0889 69.1777 37.2861C69.6702 37.9943 69.9179 38.8122 69.9179 39.7368C69.9179 40.8189 69.6146 41.7041 69.0052 42.3983C68.6907 42.7637 68.2343 43.0981 67.6416 43.4017C68.5126 43.7361 69.1638 44.1127 69.5951 44.5343C70.3576 45.2818 70.7388 46.3133 70.7388 47.6258C70.7388 48.7303 70.3966 49.7308 69.7092 50.6245C68.6851 51.9623 67.0544 52.6312 64.8226 52.6312H57.6458V35.4902ZM64.0824 42.7384C65.0536 42.7384 65.8077 42.6035 66.3476 42.3309C67.1935 41.9037 67.6193 41.1336 67.6193 40.0207C67.6193 38.8993 67.1685 38.1461 66.2669 37.7555C65.7576 37.5391 65.0035 37.4294 64.0017 37.4294H59.8998V42.7384H64.0824ZM64.856 50.6498C66.2669 50.6498 67.2715 50.2367 67.8726 49.4132C68.251 48.8933 68.4402 48.2609 68.4402 47.5218C68.4402 46.2767 67.8892 45.428 66.7873 44.9783C66.2029 44.7366 65.4265 44.6158 64.4636 44.6158H59.8998V50.6498H64.856Z" fill="white"/>
<path d="M89.0164 52.5864L87.8615 53.9973L85.2373 51.9794C84.6056 52.3307 83.9211 52.6089 83.1864 52.8197C82.4517 53.0305 81.6475 53.1345 80.7765 53.1345C78.1412 53.1345 76.0764 52.2632 74.582 50.5207C73.2657 48.8232 72.6062 46.7013 72.6062 44.1495C72.6062 41.8308 73.1767 39.8467 74.3148 38.1969C75.7786 36.0807 77.9436 35.0239 80.8099 35.0239C83.807 35.0239 86.0249 35.9963 87.4663 37.9412C88.5906 39.4588 89.1527 41.4008 89.1527 43.7644C89.1527 44.8689 89.0164 45.9313 88.7492 46.9515C88.3402 48.5085 87.65 49.776 86.6816 50.7568L89.0164 52.5864ZM82.3961 50.9592C82.8107 50.8945 83.1753 50.7624 83.4814 50.5685L81.6197 49.0987L82.7746 47.6625L84.9924 49.4022C85.6937 48.5928 86.1696 47.6878 86.42 46.6845C86.6705 45.6811 86.7957 44.72 86.7957 43.801C86.7957 41.7859 86.2725 40.1642 85.229 38.9361C84.1854 37.7079 82.7579 37.0924 80.949 37.0924C79.1152 37.0924 77.6625 37.6826 76.5939 38.8602C75.5226 40.0378 74.9883 41.8533 74.9883 44.304C74.9883 46.3669 75.5031 48.0082 76.53 49.2279C77.5596 50.4505 79.0651 51.0603 81.0548 51.0603C81.5334 51.0575 81.9815 51.0238 82.3961 50.9592Z" fill="white"/>
<path d="M100.092 40.9992C99.8499 40.4315 99.7274 39.8834 99.7274 39.3523C99.7274 38.2478 100.098 37.3315 100.838 36.6036C101.578 35.8757 102.566 35.5132 103.807 35.5132C104.987 35.5132 105.905 35.8504 106.568 36.5278C107.23 37.2051 107.561 38.0145 107.561 38.956C107.561 40.0521 107.219 41.0132 106.531 41.8395C106.131 42.3229 105.46 42.8794 104.519 43.5089L107.617 47.244C107.825 46.6229 107.97 46.1563 108.051 45.85C108.131 45.5437 108.215 45.1137 108.298 44.56H110.274C110.143 45.6561 109.882 46.71 109.49 47.7161C109.097 48.7223 108.9 49.1298 108.9 48.9359L111.916 52.6344H109.236L107.642 50.6727C107.01 51.3641 106.431 51.87 105.908 52.1904C104.992 52.7497 103.935 53.0307 102.741 53.0307C100.977 53.0307 99.694 52.5501 98.8926 51.5889C98.0912 50.6278 97.6904 49.5457 97.6904 48.3401C97.6904 47.0416 98.08 45.9568 98.8564 45.0856C99.3351 44.5572 100.223 43.8939 101.525 43.1014C100.816 42.2667 100.334 41.5669 100.092 40.9992ZM105.101 50.5912C105.716 50.195 106.192 49.7509 106.523 49.2619L102.686 44.5347C101.6 45.2654 100.891 45.8275 100.559 46.2154C100.05 46.7999 99.797 47.511 99.797 48.3513C99.797 49.2619 100.125 49.9617 100.785 50.4507C101.444 50.9397 102.146 51.1871 102.894 51.1871C103.751 51.1871 104.486 50.9875 105.101 50.5912ZM104.94 40.8811C105.393 40.3528 105.621 39.7654 105.621 39.119C105.621 38.6131 105.454 38.1775 105.123 37.8121C104.792 37.4468 104.344 37.2641 103.782 37.2641C102.928 37.2641 102.335 37.5508 102.004 38.1269C101.834 38.422 101.751 38.7452 101.751 39.0965C101.751 39.5715 101.879 40.0268 102.137 40.4624C102.396 40.898 102.825 41.4629 103.426 42.1543C104.158 41.6315 104.664 41.21 104.94 40.8811Z" fill="white"/>
<path d="M120.829 35.4902H123.072V43.8457L131.346 35.4902H134.523L127.464 42.3983L134.721 52.634H131.73L125.791 44.034L123.075 46.659V52.634H120.832V35.4902H120.829Z" fill="white"/>
<path d="M136.833 35.4902H149.208V37.5896H139.073V42.7946H148.443V44.7788H139.073V50.5908H149.381V52.634H136.833V35.4902Z" fill="white"/>
<path d="M152.339 35.4902H159.63C161.617 35.4902 163.031 36.0889 163.871 37.2861C164.363 37.9943 164.611 38.8122 164.611 39.7368C164.611 40.8189 164.308 41.7041 163.698 42.3983C163.384 42.7637 162.928 43.0981 162.335 43.4017C163.206 43.7361 163.857 44.1127 164.288 44.5343C165.051 45.2818 165.432 46.3133 165.432 47.6258C165.432 48.7303 165.09 49.7308 164.402 50.6245C163.378 51.9623 161.748 52.6312 159.516 52.6312H152.339V35.4902ZM158.776 42.7384C159.747 42.7384 160.501 42.6035 161.041 42.3309C161.887 41.9037 162.313 41.1336 162.313 40.0207C162.313 38.8993 161.862 38.1461 160.96 37.7555C160.451 37.5391 159.697 37.4294 158.695 37.4294H154.593V42.7384H158.776ZM159.549 50.6498C160.96 50.6498 161.965 50.2367 162.566 49.4132C162.944 48.8933 163.133 48.2609 163.133 47.5218C163.133 46.2767 162.582 45.428 161.481 44.9783C160.896 44.7366 160.12 44.6158 159.157 44.6158H154.593V50.6498H159.549Z" fill="white"/>
<path d="M173.115 35.4902H175.715L181.873 52.634H179.354L177.632 47.4993H170.92L169.083 52.634H166.726L173.115 35.4902ZM176.894 45.6079L174.318 38.0337L171.579 45.6079H176.894Z" fill="white"/>
<path d="M183.907 35.4902H191.198C193.185 35.4902 194.599 36.0889 195.439 37.2861C195.932 37.9943 196.179 38.8122 196.179 39.7368C196.179 40.8189 195.876 41.7041 195.266 42.3983C194.952 42.7637 194.496 43.0981 193.903 43.4017C194.774 43.7361 195.425 44.1127 195.856 44.5343C196.619 45.2818 197 46.3133 197 47.6258C197 48.7303 196.658 49.7308 195.971 50.6245C194.946 51.9623 193.316 52.6312 191.084 52.6312H183.907V35.4902ZM190.344 42.7384C191.315 42.7384 192.069 42.6035 192.609 42.3309C193.455 41.9037 193.881 41.1336 193.881 40.0207C193.881 38.8993 193.43 38.1461 192.528 37.7555C192.019 37.5391 191.265 37.4294 190.263 37.4294H186.161V42.7384H190.344ZM191.117 50.6498C192.528 50.6498 193.533 50.2367 194.134 49.4132C194.512 48.8933 194.702 48.2609 194.702 47.5218C194.702 46.2767 194.151 45.428 193.049 44.9783C192.464 44.7366 191.688 44.6158 190.725 44.6158H186.161V50.6498H191.117Z" fill="white"/>
<path d="M0.701332 32.767C-0.242037 35.94 -0.322739 39.1243 1.01022 42.1792C3.25038 47.3083 7.57763 50.2199 12.3307 52.5919C12.7926 52.8224 13.2629 53.4576 14.081 52.9966C13.633 52.3896 13.185 51.8191 12.7787 51.2204C11.1007 48.7529 9.58681 46.2572 9.30018 43.1292C8.87998 38.5228 10.8057 34.6753 12.8232 30.8194C14.7712 27.0955 17.4955 23.886 19.6105 20.2633C21.9508 16.2556 22.6047 12.3126 20.5093 7.91139C19.2682 5.30048 17.4927 3.0465 16.2878 0.444024C16.1765 0.202325 16.0151 -0.115255 15.6784 0.0393193C15.3695 0.179842 15.4724 0.533959 15.4919 0.79252C15.7034 3.90088 14.4178 6.61015 13.2657 9.35034C12.0607 12.217 10.5107 14.9094 8.96068 17.5878C7.99505 19.2572 6.14727 22.1182 5.32078 23.3885C5.03137 23.8298 4.76979 24.2851 4.5249 24.7544C3.56762 26.6065 1.09649 31.4433 0.701332 32.767Z" fill="#5378BC"/>
<path d="M21.3386 50.4167C21.3525 45.9677 23.448 42.4518 26.3282 39.3407C28.7659 36.7073 30.597 33.7282 31.8381 30.3613C32.4281 28.7593 32.5422 27.0815 32.6729 25.4037C32.7036 24.9989 32.531 24.4003 32.9874 24.2739C33.5662 24.1137 33.6358 24.7994 33.8501 25.1648C36.4381 29.5631 35.3862 33.8968 33.5356 38.1772C32.0468 41.62 29.175 43.9273 26.651 46.5158C25.1343 48.0728 23.4146 49.4611 22.4851 51.5268C22.3655 51.7938 22.1595 52.1535 21.756 52.0524C21.3609 51.954 21.3609 51.583 21.3442 51.257C21.3275 50.9788 21.3386 50.6977 21.3386 50.4167Z" fill="#109548"/>
<path d="M24.2105 32.6942C24.1103 32.8825 23.9962 33.0623 23.8682 33.2338C22.2013 35.5018 20.4677 37.7164 19.0484 40.17C18.1412 41.7382 17.5791 43.3992 17.2201 45.1613C17.1116 45.7009 16.4159 45.8387 16.1014 45.389C14.5848 43.2221 14.4624 39.7147 16.0068 37.2049C16.2545 36.8031 16.4215 36.3618 16.5968 35.9234C16.6107 35.8868 16.6302 35.8503 16.6524 35.8166C20.0252 30.3615 24.6836 25.5697 25.6993 18.8134C25.7967 18.1698 26.6733 18.0742 26.8959 18.6841L26.9015 18.7009C28.4988 23.0262 27.3273 26.9637 25.2485 30.7746C24.9007 31.4154 24.5556 32.0534 24.2105 32.6942Z" fill="#EC2125"/>
</g>
<defs>
<clipPath id="clip0_49_30">
<rect width="197" height="54" fill="white"/>
</clipPath>
</defs>
</svg>
